<svg width="123" height="40" viewBox="0 0 123 40" fill="none" xmlns="http://www.w3.org/2000/svg">
<path d="M97.6591 1.05395H102.047V30.4141H97.6591V1.05395Z" fill="white"/>
<path d="M41.7709 11.0486C36.2431 11.0486 31.7405 15.25 31.7405 21.036C31.7405 26.7862 36.2431 31.0235 41.7709 31.0235C47.2988 31.0235 51.8014 26.7862 51.8014 21.036C51.8014 15.2429 47.2988 11.0486 41.7709 11.0486ZM41.7709 27.0873C38.7453 27.0873 36.1355 24.5922 36.1355 21.036C36.1355 17.444 38.7453 14.9848 41.7709 14.9848C44.7966 14.9848 47.4063 17.444 47.4063 21.036C47.4063 24.5922 44.7966 27.0873 41.7709 27.0873Z" fill="white"/>
<path d="M15.7376 14.1101V18.3474H25.8756C25.5745 20.7277 24.7786 22.47 23.5669 23.6817C22.09 25.1586 19.7813 26.7862 15.7376 26.7862C9.49274 26.7862 4.61732 21.753 4.61732 15.5082C4.61732 9.26331 9.49274 4.23732 15.7376 4.23732C19.1074 4.23732 21.5666 5.56372 23.3805 7.26295L26.3703 4.27317C23.8322 1.84979 20.4696 0 15.7376 0C7.18408 0 0 6.96182 0 15.5153C0 24.0688 7.19125 31.0306 15.7376 31.0306C20.3549 31.0306 23.8322 29.5178 26.5567 26.6786C29.3601 23.8752 30.2276 19.9462 30.2276 16.7629C30.2276 15.7806 30.1488 14.87 29.9982 14.1172H15.7376V14.1101Z" fill="white"/>
<path d="M114.078 27.0873C111.848 27.0873 110.256 26.0692 109.231 24.0617L122.588 18.5338L122.137 17.401C121.305 15.1712 118.767 11.0414 113.583 11.0414C108.435 11.0414 104.162 15.0923 104.162 21.0289C104.162 26.6284 108.399 31.0163 114.078 31.0163C118.659 31.0163 121.305 28.2129 122.402 26.5926L118.996 24.3198C117.863 25.9903 116.315 27.0873 114.078 27.0873ZM113.741 14.9059C115.483 14.9059 116.96 15.7734 117.448 17.0281L108.521 20.7349C108.407 16.8704 111.504 14.9059 113.741 14.9059Z" fill="white"/>
<path d="M90.4678 13.2784H90.3173C89.335 12.1025 87.4422 11.0486 85.0547 11.0486C80.0574 11.0486 75.4831 15.4365 75.4831 21.079C75.4831 26.6786 80.0645 31.0306 85.0547 31.0306C87.435 31.0306 89.3278 29.9695 90.3173 28.7578H90.4678V30.199C90.4678 34.0204 88.4244 36.0638 85.1335 36.0638C82.4449 36.0638 80.7815 34.1351 80.1004 32.5076L76.2789 34.0993C77.3759 36.7449 80.2868 40 85.1335 40C90.2814 40 94.6334 36.9744 94.6334 29.5967V11.6508H90.4678V13.2784ZM85.4347 27.0873C82.409 27.0873 79.8709 24.5492 79.8709 21.0719C79.8709 17.5515 82.409 14.9776 85.4347 14.9776C88.4244 14.9776 90.769 17.5515 90.769 21.0719C90.769 24.5564 88.4244 27.0873 85.4347 27.0873Z" fill="white"/>
<path d="M63.6386 11.0486C58.1108 11.0486 53.6082 15.25 53.6082 21.036C53.6082 26.7862 58.1108 31.0235 63.6386 31.0235C69.1665 31.0235 73.6691 26.7862 73.6691 21.036C73.6691 15.2429 69.1665 11.0486 63.6386 11.0486ZM63.6386 27.0873C60.613 27.0873 58.0032 24.5922 58.0032 21.036C58.0032 17.444 60.613 14.9848 63.6386 14.9848C66.6643 14.9848 69.2741 17.444 69.2741 21.036C69.2812 24.5922 66.6714 27.0873 63.6386 27.0873Z" fill="white"/>
</svg>
