<svg width="16" height="16" viewBox="0 0 16 16" fill="none" xmlns="http://www.w3.org/2000/svg">
<path d="M12.6066 9.79478C12.6066 10.6548 13.3133 11.3548 14.1733 11.3548C14.1733 13.8548 13.5466 14.4814 11.0466 14.4814H4.79329C2.29329 14.4814 1.66663 13.8548 1.66663 11.3548V11.0481C2.52663 11.0481 3.23329 10.3414 3.23329 9.48145C3.23329 8.62145 2.52663 7.91478 1.66663 7.91478V7.60811C1.67329 5.10811 2.29329 4.48145 4.79329 4.48145H11.04C13.54 4.48145 14.1666 5.10811 14.1666 7.60811V8.23478C13.3066 8.23478 12.6066 8.92811 12.6066 9.79478Z" stroke="#1E1E1E" stroke-width="1.5" stroke-linecap="round" stroke-linejoin="round"/>
<path d="M10.8074 4.48134H4.74744L6.70077 2.52801C8.2941 0.934674 9.0941 0.934674 10.6874 2.52801L11.0874 2.92801C10.6674 3.34801 10.5674 3.96801 10.8074 4.48134Z" stroke="#1E1E1E" stroke-width="1.5" stroke-linecap="round" stroke-linejoin="round"/>
<path d="M6.58594 4.48145L6.58594 14.4814" stroke="#1E1E1E" stroke-width="1.5" stroke-linecap="round" stroke-linejoin="round" stroke-dasharray="5 5"/>
</svg>
